<?xml version="1.0" encoding="UTF-8"?>
<svg width="1024" height="1024" viewBox="0 0 1024 1024" fill="none" xmlns="http://www.w3.org/2000/svg">
    <defs>
        <linearGradient id="grad1" x1="0%" y1="0%" x2="100%" y2="100%">
            <stop offset="0%" style="stop-color:#4facfe;stop-opacity:1" />
            <stop offset="100%" style="stop-color:#00f2fe;stop-opacity:1" />
        </linearGradient>
        <filter id="shadow" x="-20%" y="-20%" width="140%" height="140%">
            <feGaussianBlur in="SourceAlpha" stdDeviation="15" />
            <feOffset dx="0" dy="10" result="offsetblur" />
            <feComponentTransfer>
                <feFuncA type="linear" slope="0.3" />
            </feComponentTransfer>
            <feMerge>
                <feMergeNode />
                <feMergeNode in="SourceGraphic" />
            </feMerge>
        </filter>
    </defs>
    
    <rect x="0" y="0" width="1024" height="1024" rx="200" fill="#1A1A1B" />
    
    <circle cx="512" cy="512" r="400" fill="url(#grad1)" fill-opacity="0.1" />
    
    <g filter="url(#shadow)" transform="translate(87, -38)">
        <path d="M650 300 L400 350 V700 C400 755 355 800 300 800 C245 800 200 755 200 700 C200 645 245 600 300 600 C325 600 345 610 360 625 V450 L600 400 V600 C600 655 555 700 500 700 C445 700 400 655 400 600 C400 545 445 500 500 500 C525 500 545 510 560 525 V300 H650" fill="white" />
    </g>

    <line x1="250" y1="250" x2="774" y2="774" stroke="#FF4B2B" stroke-width="60" stroke-linecap="round" opacity="0.9" />
    
    <text x="512" y="920" font-family="Arial, sans-serif" font-size="80" font-weight="bold" fill="white" text-anchor="middle" letter-spacing="5">NO AD MUSIC</text>
</svg>
